<?xml version="1.0" encoding="utf-8"?><svg viewBox="0 0 512 512" xmlns="http://www.w3.org/2000/svg" xmlns:xlink="http://www.w3.org/1999/xlink"><style>:root>svg{display:none}:root>svg:target{display:block}</style><svg viewBox="0 0 15 15" id="call" xmlns="http://www.w3.org/2000/svg"><path d="M9.037 3.485a3.106 3.106 0 012.454 2.453L9.037 3.485zm0-2.485a5.59 5.59 0 014.938 4.932L9.037 1zm4.317 9.89v1.863A1.243 1.243 0 0112 13.995a12.294 12.294 0 01-5.36-1.907 12.114 12.114 0 01-3.728-3.727 12.293 12.293 0 01-1.907-5.386 1.242 1.242 0 011.236-1.354h1.864A1.242 1.242 0 015.347 2.69c.079.596.225 1.182.435 1.745a1.242 1.242 0 01-.28 1.31l-.789.79a9.939 9.939 0 003.727 3.727l.79-.79a1.242 1.242 0 011.31-.279c.564.21 1.15.356 1.746.435a1.242 1.242 0 011.068 1.261z" stroke="#fff" stroke-linecap="round" stroke-linejoin="round"/></svg><svg fill="none" viewBox="0 0 10 17" id="fb" xmlns="http://www.w3.org/2000/svg"><path d="M9.25 1H7a3.75 3.75 0 00-3.75 3.75V7H1v3h2.25v6h3v-6H8.5l.75-3h-3V4.75A.75.75 0 017 4h2.25V1z" stroke="#fff" stroke-linecap="round" stroke-linejoin="round"/></svg><svg fill="none" viewBox="0 0 17 16" id="in" xmlns="http://www.w3.org/2000/svg"><path d="M11.14 5.5a4.5 4.5 0 014.5 4.5v5.25h-3V10a1.5 1.5 0 00-3 0v5.25h-3V10a4.5 4.5 0 014.5-4.5v0zM3.64 6.25h-3v9h3v-9zM2.14 4a1.5 1.5 0 100-3 1.5 1.5 0 000 3z" stroke="#fff" stroke-linecap="round" stroke-linejoin="round"/></svg><svg fill="none" viewBox="0 0 17 17" id="inst" xmlns="http://www.w3.org/2000/svg"><path d="M12.5 1H5a3.75 3.75 0 00-3.75 3.75v7.5A3.75 3.75 0 005 16h7.5a3.75 3.75 0 003.75-3.75v-7.5A3.75 3.75 0 0012.5 1z" stroke="#fff" stroke-linecap="round" stroke-linejoin="round"/><path d="M11.75 8.027a3 3 0 11-5.933.88 3 3 0 015.933-.88zM12.875 4.375h.008" stroke="#fff" stroke-linecap="round" stroke-linejoin="round"/></svg><svg viewBox="0 0 15 18" id="loc" xmlns="http://www.w3.org/2000/svg"><path d="M14 7.5c0 5.056-6.5 9.389-6.5 9.389S1 12.556 1 7.5a6.5 6.5 0 1113 0z" stroke="#fff" stroke-linecap="round" stroke-linejoin="round"/><path d="M7.5 9.667a2.167 2.167 0 100-4.334 2.167 2.167 0 000 4.334z" stroke="#fff" stroke-linecap="round" stroke-linejoin="round"/></svg><svg viewBox="0 0 15 12" id="msg" xmlns="http://www.w3.org/2000/svg"><g stroke="#fff" stroke-linecap="round" stroke-linejoin="round"><path d="M2.3 1h10.4c.715 0 1.3.585 1.3 1.3v7.8c0 .715-.585 1.3-1.3 1.3H2.3c-.715 0-1.3-.585-1.3-1.3V2.3C1 1.585 1.585 1 2.3 1z"/><path d="M14 2.3L7.5 6.85 1 2.3"/></g></svg><svg fill="none" viewBox="0 0 21 17" id="twitter" xmlns="http://www.w3.org/2000/svg"><path d="M19.64 1.008c-.8.565-1.686.997-2.624 1.28a3.745 3.745 0 00-6.57 2.507v.836a8.911 8.911 0 01-7.524-3.787s-3.344 7.524 4.18 10.868a9.73 9.73 0 01-5.852 1.672c7.524 4.18 16.719 0 16.719-9.614 0-.233-.023-.465-.067-.694a6.454 6.454 0 001.739-3.068v0z" stroke="#fff" stroke-linecap="round" stroke-linejoin="round"/></svg><svg aria-hidden="true" data-prefix="fab" data-icon="twitter" class="hsvg-inline--fa hfa-twitter hfa-w-16" viewBox="0 0 512 512" id="twitter-brands" xmlns="http://www.w3.org/2000/svg"><path fill="currentColor" d="M459.37 151.716c.325 4.548.325 9.097.325 13.645 0 138.72-105.583 298.558-298.558 298.558-59.452 0-114.68-17.219-161.137-47.106 8.447.974 16.568 1.299 25.34 1.299 49.055 0 94.213-16.568 130.274-44.832-46.132-.975-84.792-31.188-98.112-72.772 6.498.974 12.995 1.624 19.818 1.624 9.421 0 18.843-1.3 27.614-3.573-48.081-9.747-84.143-51.98-84.143-102.985v-1.299c13.969 7.797 30.214 12.67 47.431 13.319-28.264-18.843-46.781-51.005-46.781-87.391 0-19.492 5.197-37.36 14.294-52.954 51.655 63.675 129.3 105.258 216.365 109.807-1.624-7.797-2.599-15.918-2.599-24.04 0-57.828 46.782-104.934 104.934-104.934 30.213 0 57.502 12.67 76.67 33.137 23.715-4.548 46.456-13.32 66.599-25.34-7.798 24.366-24.366 44.833-46.132 57.827 21.117-2.273 41.584-8.122 60.426-16.243-14.292 20.791-32.161 39.308-52.628 54.253z"/></svg><svg fill="none" viewBox="0 0 20 15" id="youtube" xmlns="http://www.w3.org/2000/svg"><path d="M18.264 2.98a2.275 2.275 0 00-1.587-1.636C15.27 1 9.64 1 9.64 1s-5.629 0-7.036.376a2.274 2.274 0 00-1.587 1.637A23.726 23.726 0 00.64 7.34c-.009 1.462.117 2.921.377 4.36a2.275 2.275 0 001.587 1.571c1.407.376 7.036.376 7.036.376s5.629 0 7.036-.376a2.275 2.275 0 001.587-1.636c.256-1.417.382-2.855.376-4.295a23.728 23.728 0 00-.376-4.361v0z" stroke="#fff" stroke-linecap="round" stroke-linejoin="round"/><path d="M7.8 10.016l4.704-2.676L7.8 4.665v5.35z" stroke="#fff" stroke-linecap="round" stroke-linejoin="round"/></svg></svg>